<?xml version="1.0" encoding="UTF-8"?>
<svg width="43px" height="48px" viewBox="0 0 43 48" version="1.1" xmlns="http://www.w3.org/2000/svg" xmlns:xlink="http://www.w3.org/1999/xlink">
    <!-- Generator: Sketch 44.1 (41455) - http://www.bohemiancoding.com/sketch -->
    <title>Logo / Flat</title>
    <desc>Created with Sketch.</desc>
    <defs></defs>
    <g id="Symbols" stroke="none" stroke-width="1" fill="none" fill-rule="evenodd">
        <g id="Navigation-ChiSiamo" transform="translate(-579.000000, -16.000000)" fill="#0E6E43">
            <g id="Navigation">
                <g id="Logo-/-Flat" transform="translate(579.000000, 16.000000)">
                    <g id="Leaf">
                        <path d="M20.0691351,47.6933963 C20.0691351,47.6933963 18.8682543,48.3422852 18.4939537,47.1156185 C17.9703786,45.3911741 14.0981506,30.280063 22.4664408,24.1645074 C17.8077361,29.5845074 17.9703786,38.6956185 20.0691351,47.6933963 Z" id="Shape" fill-rule="nonzero"></path>
                        <path d="M35.1527771,41.6432978 C34.1783536,43.2317085 29.089027,50.6237881 22.7248864,43.4845074 C19.5633838,39.8267296 19.9042646,33.9289519 21.5997569,31.1467296 C23.2952491,28.3645074 24.1463372,25.4578407 23.2818812,24.1645074 C23.5358708,24.3067296 23.7809486,24.4311741 24.0193423,24.5445074 C24.0985374,24.6580488 24.1774394,24.7716344 24.2560558,24.885263 C26.1992579,25.7580808 27.6867763,25.7225049 29.540275,25.1311741 C31.692503,24.4445074 39.430275,23.9933963 41.8119848,31.0578407 C42.763332,33.9845074 45.1962854,40.3689519 35.3174252,41.5845074 C35.3174252,41.5845074 35.2884615,41.6356185 35.237218,41.7245074 C35.2089763,41.6975292 35.1808292,41.6704591 35.1527771,41.6432978 Z M1.42730702,23.0566718 C-2.82395978,14.1687413 3.85230347,12.7692307 6.83048224,11.9778407 C14.0780988,10.1711741 17.8790315,16.9133963 18.4605341,19.0889519 C18.9479822,20.9131978 19.6944695,22.1643676 21.3810585,23.298357 C21.5006546,23.3024301 21.6203409,23.3067009 21.7401195,23.3111741 C21.9651455,23.4489519 22.2035392,23.5867296 22.4597569,23.7245074 C20.9001714,23.700063 18.9128138,25.980063 17.4757672,28.9089519 C16.0387206,31.8378407 11.2530211,35.2933963 6.4584097,34.6267296 C-3.34247113,33.0845074 0.75478276,24.2733963 1.37638898,23.0445074 L1.37638898,23.0445074 C1.39335642,23.0485879 1.41032912,23.0526427 1.42730702,23.0566718 Z M32.5176653,4.17733699 C42.4424339,3.96593906 40.9604897,10.624637 40.4350936,13.660063 C39.0983061,20.9933963 31.3739019,21.660063 29.1459227,21.2889519 C27.2646961,20.9772702 25.8079176,21.1421049 24.0601288,22.2245967 C24.0250914,22.2949373 23.9899592,22.3652779 23.9547309,22.4356185 C23.731933,22.5822852 23.5091351,22.740063 23.2863372,22.9178407 C23.9547309,21.5133963 22.6914667,18.7711741 20.612762,16.2511741 C18.5340574,13.7311741 17.3443164,7.95339629 19.9443683,3.88006296 C25.3984615,-4.39549259 31.7526584,2.97561852 32.6171144,4.04895185 L32.6171144,4.04895185 C32.5837589,4.09159882 32.5506089,4.13439437 32.5176653,4.17733699 Z" id="Combined-Shape" fill-rule="nonzero"></path>
                    </g>
                </g>
            </g>
        </g>
    </g>
</svg>